<svg width="59" height="104" viewBox="0 0 59 104" fill="none" xmlns="http://www.w3.org/2000/svg">
<rect x="22" y="59" width="8" height="8" fill="#EDD95C"/>
<rect x="30" y="59" width="7" height="8" fill="#EDD95C"/>
<rect x="22" y="67" width="8" height="7" fill="#EDD95C"/>
<rect x="30" y="67" width="7" height="7" fill="#EDD95C"/>
<rect x="22" y="89" width="8" height="8" fill="#EDD95C"/>
<rect x="30" y="89" width="7" height="8" fill="#EDD95C"/>
<rect x="22" y="97" width="8" height="7" fill="#EDD95C"/>
<rect x="30" y="97" width="7" height="7" fill="#EDD95C"/>
<rect x="22" y="82" width="8" height="7" fill="#EDD95C"/>
<rect x="15" y="82" width="7" height="7" fill="#EDD95C"/>
<rect x="7" y="74" width="8" height="8" fill="#EDD95C"/>
<rect x="7" y="67" width="8" height="7" fill="#EDD95C"/>
<rect y="67" width="7" height="7" fill="#EDD95C"/>
<rect x="45" y="74" width="7" height="8" fill="#EDD95C"/>
<rect x="45" y="67" width="7" height="7" fill="#EDD95C"/>
<rect x="52" y="67" width="7" height="7" fill="#EDD95C"/>
<rect x="30" y="82" width="7" height="7" fill="#EDD95C"/>
<rect x="37" y="82" width="8" height="7" fill="#EDD95C"/>
<rect x="11" width="8" height="7" fill="#EDD95C"/>
<rect x="11" y="22" width="8" height="8" fill="#EDD95C"/>
<rect x="4" y="7" width="7" height="8" fill="#EDD95C"/>
<rect x="4" y="15" width="7" height="7" fill="#EDD95C"/>
<rect x="49" y="7" width="7" height="8" fill="#EDD95C"/>
<rect x="19" width="7" height="7" fill="#EDD95C"/>
<rect x="49" y="15" width="7" height="7" fill="#EDD95C"/>
<rect x="34" width="7" height="7" fill="#EDD95C"/>
<rect x="41" width="8" height="7" fill="#EDD95C"/>
<rect x="19" y="30" width="7" height="7" fill="#EDD95C"/>
<rect x="26" y="7" width="8" height="8" fill="#EDD95C"/>
<rect x="26" y="37" width="8" height="8" fill="#EDD95C"/>
<rect x="34" y="30" width="7" height="7" fill="#EDD95C"/>
<rect x="41" y="22" width="8" height="8" fill="#EDD95C"/>
</svg>
