<svg xmlns="http://www.w3.org/2000/svg" viewBox="0 0 600 175.37"><defs><style>.cls-1{fill:#fff;}</style></defs><g id="Capa_2" data-name="Capa 2"><g id="Layer_1" data-name="Layer 1"><rect class="cls-1" x="456.89" y="0.05" width="26.87" height="26.87"/><polygon class="cls-1" points="456.89 26.91 430.03 26.91 430.03 53.78 403.16 53.78 403.16 80.65 430.03 80.65 456.89 80.65 456.89 53.78 456.89 26.91"/><rect class="cls-1" x="456.89" y="80.65" width="26.87" height="26.87"/><rect class="cls-1" x="376.29" y="80.65" width="26.87" height="26.87"/><rect class="cls-1" x="376.29" y="0.05" width="26.87" height="26.87"/><path class="cls-1" d="M58,23.74v83.74H31.39V23.74H0L.62,0H88.87l.62,23.74Z"/><path class="cls-1" d="M185.38,65l25.09,42.48H179.7L161.48,70H144.93v37.57h-26.4V0h42.95c29.05,0,43.58,10.87,43.58,34.68C205.06,50.31,198,61.32,185.38,65Zm-23.74-44.2H144.93V51.2h16.24c11.72,0,16.4-3.43,16.4-15.48C177.57,24.41,173.2,20.84,161.64,20.84Z"/><path class="cls-1" d="M313.49,86.59H271l-6.56,20.93h-27.8L277.1,0h31.39l40.92,107.52H320.05ZM289.13,29.53,277.41,66.38h29.83L296,29.53l-3.12-11.32h-.47Z"/><path class="cls-1" d="M510.79,0h26.86V107.52H510.79Z"/><path class="cls-1" d="M575.89,24.34c-4,0-5.84-1.88-5.84-6.41s1.82-6.47,5.86-6.47,5.82,1.94,5.82,6.47S580,24.34,575.89,24.34Zm0-3c1.34,0,1.8-.65,1.8-3.38s-.46-3.38-1.8-3.38-1.82.61-1.82,3.38S574.58,21.31,575.91,21.31Z"/><path class="cls-1" d="M590.27,24.06V16.33c0-1.13-.5-1.57-1.49-1.57a2.07,2.07,0,0,0-1.62.7v8.6h-3.88V11.76l2.79-.16.54,1a5.2,5.2,0,0,1,3.28-1.11c2.61,0,4.29,1.74,4.29,4.87v7.73Z"/><path class="cls-1" d="M582.11,35.8A17.9,17.9,0,1,1,600,17.9,17.91,17.91,0,0,1,582.11,35.8Zm0-33.14A15.25,15.25,0,1,0,597.36,17.9,15.26,15.26,0,0,0,582.11,2.66Z"/><path class="cls-1" d="M46.47,161.78v-4.09c-.22.28-.44.55-.68.82a11.05,11.05,0,0,1-16.7,0,13.15,13.15,0,0,1,0-17.4,11.05,11.05,0,0,1,16.7,0c.24.27.46.54.68.82v-4.08h3.8v23.93Zm-2.42-18.06a8.22,8.22,0,0,0-12,0,8.87,8.87,0,0,0,0,12.18,8.22,8.22,0,0,0,12,0,8.87,8.87,0,0,0,0-12.18Z"/><path class="cls-1" d="M111.73,151.28h-21a8.14,8.14,0,0,0,3,5.06,8.66,8.66,0,0,0,9.49,1.06,8.85,8.85,0,0,0,3.12-2.64h4.35a12.13,12.13,0,0,1-4.59,5.41,11.44,11.44,0,0,1-6.25,2,13.67,13.67,0,0,1-5.44-1,12.9,12.9,0,0,1-4-2.67,11.88,11.88,0,0,1-3.67-8.81,12.55,12.55,0,0,1,12.5-12.51,12.22,12.22,0,0,1,8.73,3.54,11.41,11.41,0,0,1,3.78,8.54ZM104.64,143a8.24,8.24,0,0,0-5.42-2,8.32,8.32,0,0,0-7.34,4.22,8.52,8.52,0,0,0-1.14,2.8h17A8.82,8.82,0,0,0,104.64,143Z"/><path class="cls-1" d="M157.39,141.6a4,4,0,0,0-2.55.84,7.1,7.1,0,0,0-1.77,2.07,10.35,10.35,0,0,0-1.36,5.3v12H147.9V137.85h3.81v5l.16-1c1.28-3,3.25-4.46,5.93-4.46a5.91,5.91,0,0,1,2.39.49v5A4.09,4.09,0,0,0,157.39,141.6Z"/><path class="cls-1" d="M214.45,158.51a12.53,12.53,0,0,1-17.68,0,11.91,11.91,0,0,1-3.67-8.81,12.51,12.51,0,0,1,25,0A11.91,11.91,0,0,1,214.45,158.51Zm-2.69-14.95a8.61,8.61,0,1,0,2.55,6.14A8.38,8.38,0,0,0,211.76,143.56Z"/><path class="cls-1" d="M254.56,175.37V137.85h3.81v4.08c.21-.28.44-.55.68-.82a11,11,0,0,1,16.69,0,13.15,13.15,0,0,1,0,17.4,11,11,0,0,1-16.69,0c-.24-.27-.47-.54-.68-.82v17.68Zm18.25-31.65a8.22,8.22,0,0,0-12,0,8.87,8.87,0,0,0,0,12.18,8.22,8.22,0,0,0,12,0,8.87,8.87,0,0,0,0-12.18Z"/><path class="cls-1" d="M324,162.26a7.8,7.8,0,0,1-6.28-2.65,10.13,10.13,0,0,1-2.25-6.81v-15h3.8v15a7.34,7.34,0,0,0,1.06,4,3.84,3.84,0,0,0,3.51,1.66q4.45,0,6.3-2.81t1.86-7.8v-10h3.8v23.93H332v-4.11A8.7,8.7,0,0,1,324,162.26Z"/><path class="cls-1" d="M396.46,151.28h-21a8.23,8.23,0,0,0,3,5.06,8.66,8.66,0,0,0,9.49,1.06,8.88,8.88,0,0,0,3.13-2.64h4.35a12.21,12.21,0,0,1-4.6,5.41,11.41,11.41,0,0,1-6.25,2,13.7,13.7,0,0,1-5.44-1,13,13,0,0,1-4-2.67,11.91,11.91,0,0,1-3.67-8.81A12.55,12.55,0,0,1,384,137.19a12.25,12.25,0,0,1,8.73,3.54,11.41,11.41,0,0,1,3.78,8.54Zm-7.1-8.32a8.21,8.21,0,0,0-5.41-2,8.31,8.31,0,0,0-7.34,4.22,8.11,8.11,0,0,0-1.14,2.8h17A8.77,8.77,0,0,0,389.36,143Z"/><path class="cls-1" d="M442.11,141.6a4,4,0,0,0-2.55.84,7.22,7.22,0,0,0-1.76,2.07,10.35,10.35,0,0,0-1.36,5.3v12h-3.81V137.85h3.81v5l.16-1c1.27-3,3.25-4.46,5.93-4.46a5.94,5.94,0,0,1,2.39.49v5A4.11,4.11,0,0,0,442.11,141.6Z"/><path class="cls-1" d="M547,158.51a12.53,12.53,0,0,1-17.68,0,11.91,11.91,0,0,1-3.67-8.81,12.51,12.51,0,0,1,25,0A11.88,11.88,0,0,1,547,158.51Zm-2.69-14.95a8.71,8.71,0,0,0-14.85,6.14,8.74,8.74,0,0,0,8.7,8.65,8.66,8.66,0,0,0,6.15-14.79Z"/><path class="cls-1" d="M485.79,142.23,501.28,152a1.44,1.44,0,0,1,.78,1.1l.15,1.15-16.42-3.6Z"/><path class="cls-1" d="M485.44,158c.05,0,4.43,4.71,5.53,5.54a.73.73,0,0,1,.3.5l.1.7-7.05-3.27Z"/><path class="cls-1" d="M485.76,130.56c-.77-2-1.44-1.76-1.44-1.76s-.67-.26-1.44,1.76a7.41,7.41,0,0,0-.56,3.08v18.09a31.29,31.29,0,0,0,2,9.74,31.29,31.29,0,0,0,2-9.74V133.64A7.41,7.41,0,0,0,485.76,130.56Z"/><path class="cls-1" d="M482.85,142.23,467.36,152a1.44,1.44,0,0,0-.78,1.1l-.15,1.15,16.42-3.6Z"/><path class="cls-1" d="M483.2,158c-.05,0-4.43,4.71-5.53,5.54a.73.73,0,0,0-.3.5l-.1.7,7.05-3.27Z"/></g></g></svg>